<svg width="18" height="18" viewBox="0 0 18 18" fill="none" xmlns="http://www.w3.org/2000/svg">
<g opacity="0.6">
<path fill-rule="evenodd" clip-rule="evenodd" d="M14.0266 12.8481L17.0892 15.9107C17.4147 16.2362 17.4147 16.7638 17.0892 17.0893C16.7638 17.4147 16.2362 17.4147 15.9107 17.0893L12.8481 14.0266C11.565 15.0529 9.9375 15.6667 8.16666 15.6667C4.02452 15.6667 0.666656 12.3088 0.666656 8.16667C0.666656 4.02454 4.02452 0.666672 8.16666 0.666672C12.3088 0.666672 15.6667 4.02454 15.6667 8.16667C15.6667 9.93752 15.0529 11.565 14.0266 12.8481ZM8.16666 14C11.3883 14 14 11.3883 14 8.16667C14 4.94501 11.3883 2.33334 8.16666 2.33334C4.945 2.33334 2.33332 4.94501 2.33332 8.16667C2.33332 11.3883 4.945 14 8.16666 14Z" fill="white"/>
</g>
</svg>
